<svg width="20" height="20" viewBox="0 0 20 20" fill="none" xmlns="http://www.w3.org/2000/svg">
<path fill-rule="evenodd" clip-rule="evenodd" d="M3.5 0H3.05248L3.00306 0.444784L2.00306 9.44478L1.99254 9.53946C0.801052 10.2321 0 11.5225 0 13V17V18C0 19.1046 0.89543 20 2 20H7C8.10457 20 9 19.1046 9 18V17V13C9 11.5225 8.19895 10.2321 7.00746 9.53946L6.99694 9.44478L5.99694 0.444784L5.94752 0H5.5H3.5ZM1 13V17H8V13C8 12.8296 7.9858 12.6626 7.95852 12.5H1.04148C1.0142 12.6626 1 12.8296 1 13ZM1.40135 11.5C1.92006 10.6033 2.88958 10 4 10H5C6.11042 10 7.07994 10.6033 7.59865 11.5H1.40135ZM7 19C7.55228 19 8 18.5523 8 18H1C1 18.5523 1.44772 19 2 19H7ZM5.95409 9.11449C5.64834 9.03967 5.3288 9 5 9H4C3.6712 9 3.35166 9.03967 3.04591 9.11449L3.61419 4H5.38581L5.95409 9.11449ZM5.2747 3H3.7253L3.94752 1H5.05248L5.2747 3ZM12.191 8H12.5H18.5H18.809L18.9472 8.27639L19.7361 9.8541C19.9096 10.2012 20 10.584 20 10.9721V17.0279C20 17.416 19.9096 17.7988 19.7361 18.1459L18.9472 19.7236L18.809 20H18.5H12.5H12.191L12.0528 19.7236L11.2639 18.1459C11.0904 17.7988 11 17.416 11 17.0279V10.9721C11 10.584 11.0904 10.2012 11.2639 9.8541L12.0528 8.27639L12.191 8ZM12.809 9L12.309 10H18.691L18.191 9H12.809ZM12 17V11H19V17H12ZM12.309 18H18.691L18.191 19H12.809L12.309 18Z" fill="#959DA7"/>
</svg>
