<svg width="20" height="20" viewBox="0 0 20 20" fill="none" xmlns="http://www.w3.org/2000/svg">
<path fill-rule="evenodd" clip-rule="evenodd" d="M10.5 0.5C10.5 0.223858 10.2761 0 10 0C9.72386 0 9.5 0.223858 9.5 0.5V2.79289L8.35355 1.64645C8.15829 1.45118 7.84171 1.45118 7.64645 1.64645C7.45118 1.84171 7.45118 2.15829 7.64645 2.35355L9.5 4.20711V8.79148L6.25875 5.55022V2.9289C6.25875 2.65276 6.03489 2.4289 5.75875 2.4289C5.4826 2.4289 5.25875 2.65276 5.25875 2.9289V4.55022L3.63743 2.9289C3.44216 2.73364 3.12558 2.73364 2.93032 2.9289C2.73506 3.12417 2.73506 3.44075 2.93032 3.63601L4.55164 5.25733L2.93032 5.25733C2.65418 5.25733 2.43032 5.48119 2.43032 5.75733C2.43032 6.03347 2.65418 6.25733 2.93032 6.25733H5.55164L8.79431 9.5H4.20711L2.35355 7.64645C2.15829 7.45118 1.84171 7.45118 1.64645 7.64645C1.45119 7.84171 1.45119 8.15829 1.64645 8.35355L2.79289 9.5H0.5C0.223858 9.5 0 9.72386 0 10C0 10.2761 0.223858 10.5 0.5 10.5H2.79289L1.64645 11.6464C1.45119 11.8417 1.45119 12.1583 1.64645 12.3536C1.84171 12.5488 2.15829 12.5488 2.35355 12.3536L4.20711 10.5H8.79187L5.54924 13.7426L2.92792 13.7426C2.65178 13.7426 2.42792 13.9665 2.42792 14.2426C2.42792 14.5188 2.65178 14.7426 2.92792 14.7426H4.54924L2.92792 16.3639C2.73266 16.5592 2.73266 16.8758 2.92792 17.0711C3.12319 17.2663 3.43977 17.2663 3.63503 17.0711L5.25635 15.4497V17.0711C5.25635 17.3472 5.48021 17.5711 5.75635 17.5711C6.03249 17.5711 6.25635 17.3472 6.25635 17.0711V14.4497L9.5 11.2061V15.7929L7.64645 17.6464C7.45118 17.8417 7.45118 18.1583 7.64645 18.3536C7.84171 18.5488 8.15829 18.5488 8.35355 18.3536L9.5 17.2071V19.5C9.5 19.7761 9.72386 20 10 20C10.2761 20 10.5 19.7761 10.5 19.5V17.2071L11.6464 18.3536C11.8417 18.5488 12.1583 18.5488 12.3536 18.3536C12.5488 18.1583 12.5488 17.8417 12.3536 17.6464L10.5 15.7929V11.2057L13.744 14.4497V17.071C13.744 17.3472 13.9679 17.571 14.244 17.571C14.5202 17.571 14.744 17.3472 14.744 17.071V15.4497L16.3653 17.071C16.5606 17.2663 16.8772 17.2663 17.0725 17.071C17.2677 16.8758 17.2677 16.5592 17.0725 16.3639L15.4511 14.7426H17.0725C17.3486 14.7426 17.5725 14.5188 17.5725 14.2426C17.5725 13.9665 17.3486 13.7426 17.0725 13.7426H14.4511L11.2085 10.5H15.7929L17.6464 12.3536C17.8417 12.5488 18.1583 12.5488 18.3536 12.3536C18.5488 12.1583 18.5488 11.8417 18.3536 11.6464L17.2071 10.5H19.5C19.7761 10.5 20 10.2761 20 10C20 9.72386 19.7761 9.5 19.5 9.5H17.2071L18.3536 8.35355C18.5488 8.15829 18.5488 7.84171 18.3536 7.64645C18.1583 7.45118 17.8417 7.45118 17.6464 7.64645L15.7929 9.5H11.2061L14.4487 6.25734H17.0701C17.3462 6.25734 17.5701 6.03348 17.5701 5.75734C17.5701 5.4812 17.3462 5.25734 17.0701 5.25734H15.4487L17.0701 3.63602C17.2653 3.44076 17.2653 3.12418 17.0701 2.92892C16.8748 2.73365 16.5582 2.73365 16.363 2.92892L14.7416 4.55024L14.7416 2.92892C14.7416 2.65277 14.5178 2.42892 14.2416 2.42892C13.9655 2.42892 13.7416 2.65277 13.7416 2.92892V5.55024L10.5 8.79187V4.20711L12.3536 2.35355C12.5488 2.15829 12.5488 1.84171 12.3536 1.64645C12.1583 1.45118 11.8417 1.45118 11.6464 1.64645L10.5 2.79289V0.5Z" fill="#959DA7"/>
</svg>
