<svg width="20" height="17" viewBox="0 0 20 17" fill="none" xmlns="http://www.w3.org/2000/svg">
<path d="M17.3651 2.34172C16.9395 1.91589 16.4342 1.5781 15.8779 1.34763C15.3217 1.11716 14.7255 0.998535 14.1235 0.998535C13.5214 0.998535 12.9252 1.11716 12.369 1.34763C11.8128 1.5781 11.3074 1.91589 10.8818 2.34172L9.99847 3.22506L9.11514 2.34172C8.25539 1.48198 7.08933 0.998981 5.87347 0.998981C4.65761 0.998981 3.49155 1.48198 2.6318 2.34172C1.77206 3.20147 1.28906 4.36753 1.28906 5.58339C1.28906 6.79925 1.77206 7.96531 2.6318 8.82506L3.51514 9.70839L9.99847 16.1917L16.4818 9.70839L17.3651 8.82506C17.791 8.39943 18.1288 7.89407 18.3592 7.33785C18.5897 6.78164 18.7083 6.18546 18.7083 5.58339C18.7083 4.98132 18.5897 4.38514 18.3592 3.82893C18.1288 3.27271 17.791 2.76735 17.3651 2.34172Z" stroke="#959DA7" stroke-width="1.6" stroke-linecap="round" stroke-linejoin="round"/>
</svg>
