<svg width="17" height="18" viewBox="0 0 17 18" fill="none" xmlns="http://www.w3.org/2000/svg">
<path fill-rule="evenodd" clip-rule="evenodd" d="M7 0C6.72386 0 6.5 0.223858 6.5 0.5C6.5 0.776142 6.72386 1 7 1H7.5V1.02054C5.49031 1.18633 3.76147 2.34257 2.80269 4H2.5H0.5C0.326712 4 0.165777 4.08973 0.0746746 4.23713C-0.016428 4.38454 -0.0247116 4.56861 0.0527859 4.72361L2 8.61803V15.5V17.1905C2 17.6376 2.36244 18 2.80952 18H13.1905C13.6376 18 14 17.6376 14 17.1905V15.5V14.6667L14.1308 14.4923C15.9932 12.009 17 8.9887 17 5.88462C17 4.84377 16.1562 4 15.1154 4H13.1973C12.2385 2.34257 10.5097 1.18633 8.5 1.02054V1H9C9.27614 1 9.5 0.776142 9.5 0.5C9.5 0.223858 9.27614 0 9 0H8H7ZM8 2C9.63582 2 11.0882 2.78555 12.0004 4H3.99963C4.91184 2.78555 6.36418 2 8 2ZM13 14.5051V15H3V8.51007C3.00015 8.50311 3.00015 8.49614 3 8.48915V7C3 6.2889 3.14845 5.61246 3.41604 5H12.5H12.584C12.8516 5.61246 13 6.2889 13 7V14.4942V14.5051ZM3 17V16H13V17H3ZM14 12.9121V7C14 6.29873 13.8797 5.62556 13.6586 5H15.1154C15.6039 5 16 5.39606 16 5.88462C16 8.37524 15.3033 10.8079 14 12.9121ZM2.34141 5H1.30902L2.02629 6.43455C2.07288 5.93615 2.18043 5.45546 2.34141 5Z" fill="#959DA7"/>
</svg>
