<svg width="12" height="11" viewBox="0 0 12 11" fill="none" xmlns="http://www.w3.org/2000/svg">
<path d="M3.78628 5.04997L5.6153 1C5.97912 1 6.32803 1.14223 6.58529 1.3954C6.84254 1.64858 6.98707 1.99195 6.98707 2.34999V4.14998H9.57513C9.70769 4.1485 9.839 4.17541 9.95995 4.22883C10.0809 4.28225 10.1886 4.36091 10.2756 4.45936C10.3626 4.55781 10.4268 4.6737 10.4637 4.79899C10.5007 4.92428 10.5095 5.05598 10.4896 5.18497L9.85863 9.23495C9.82556 9.44955 9.71479 9.64517 9.54674 9.78575C9.37869 9.92633 9.16467 10.0024 8.94412 9.99994H3.78628M3.78628 5.04997V9.99994M3.78628 5.04997H2.41451C2.17197 5.04997 1.93936 5.14479 1.76785 5.31358C1.59635 5.48236 1.5 5.71128 1.5 5.94997V9.09995C1.5 9.33864 1.59635 9.56756 1.76785 9.73634C1.93936 9.90512 2.17197 9.99994 2.41451 9.99994H3.78628" stroke="white" stroke-width="1.2" stroke-linecap="round" stroke-linejoin="round"/>
</svg>
