<svg width="157" height="17" viewBox="0 0 157 17" fill="none" xmlns="http://www.w3.org/2000/svg">
<path d="M0.280029 3.57989V0.879893H13.54V3.57989H8.42003V13.9999H5.40003V3.57989H0.280029Z" fill="url(#paint0_linear_1_22)"/>
<path d="M24.1082 0.879893C25.6548 0.879893 26.8748 1.25323 27.7682 1.99989C28.6615 2.74656 29.1082 3.76656 29.1082 5.05989V5.27989C29.1082 6.58656 28.6615 7.61323 27.7682 8.35989C26.8748 9.10656 25.6548 9.47989 24.1082 9.47989H18.7882V13.9999H15.7882V0.879893H24.1082ZM24.0282 6.81989C24.6815 6.81989 25.1815 6.69323 25.5282 6.43989C25.8748 6.17323 26.0482 5.78656 26.0482 5.27989V5.05989C26.0482 4.56656 25.8748 4.19323 25.5282 3.93989C25.1815 3.67323 24.6815 3.53989 24.0282 3.53989H18.7882V6.81989H24.0282Z" fill="url(#paint1_linear_1_22)"/>
<path d="M34.9103 0.879893V9.87989L42.1903 0.879893H45.1903V13.9999H42.2103V4.99989L34.9303 13.9999H31.9303V0.879893H34.9103Z" fill="url(#paint2_linear_1_22)"/>
<path d="M63.9371 11.2999V16.6599H60.9371V13.9999H50.4771V16.6599H47.4771V11.2999H49.1571C49.8637 10.1799 50.2371 8.75323 50.2771 7.01989L50.3971 0.879893H61.9171V11.2999H63.9371ZM53.0571 7.07989C53.0171 8.74656 52.6971 10.1532 52.0971 11.2999H58.9171V3.57989H53.1371L53.0571 7.07989Z" fill="url(#paint3_linear_1_22)"/>
<path d="M78.1208 0.879893V3.51989H69.4608V6.11989H77.7208V8.73989H69.4608V11.3599H78.1208V13.9999H66.4608V0.879893H78.1208Z" fill="url(#paint4_linear_1_22)"/>
<path d="M92.5339 7.27989C93.1473 7.55989 93.6139 7.93989 93.9339 8.41989C94.2539 8.89989 94.4139 9.45989 94.4139 10.0999V10.3199C94.4139 11.4532 93.9739 12.3532 93.0939 13.0199C92.2139 13.6732 91.0206 13.9999 89.5139 13.9999H81.3139V0.879893H89.1339C90.6806 0.879893 91.8739 1.18656 92.7139 1.79989C93.5673 2.39989 93.9939 3.24656 93.9939 4.33989V4.55989C93.9939 5.73323 93.5073 6.63989 92.5339 7.27989ZM84.3139 3.49989V6.13989H89.1139C90.3539 6.13989 90.9739 5.73323 90.9739 4.91989V4.71989C90.9739 4.31989 90.8139 4.01989 90.4939 3.81989C90.1873 3.60656 89.7339 3.49989 89.1339 3.49989H84.3139ZM91.3539 9.87989C91.3539 9.05323 90.7273 8.63989 89.4739 8.63989H84.3139V11.3799H89.4739C90.0739 11.3799 90.5339 11.2666 90.8539 11.0399C91.1873 10.8132 91.3539 10.4932 91.3539 10.0799V9.87989Z" fill="url(#paint5_linear_1_22)"/>
<path d="M109.929 0.879893V13.9999H106.929V9.35989H104.649L100.189 13.9999H96.6688V13.5399L100.809 9.31989C99.5021 9.18656 98.4754 8.76656 97.7288 8.05989C96.9821 7.33989 96.6088 6.41323 96.6088 5.27989V5.05989C96.6088 3.76656 97.0555 2.74656 97.9488 1.99989C98.8421 1.25323 100.062 0.879893 101.609 0.879893H109.929ZM106.929 3.53989H101.689C101.035 3.53989 100.535 3.67323 100.189 3.93989C99.8421 4.19323 99.6688 4.56656 99.6688 5.05989V5.27989C99.6688 5.78656 99.8421 6.17323 100.189 6.43989C100.535 6.69323 101.035 6.81989 101.689 6.81989H106.929V3.53989Z" fill="url(#paint6_linear_1_22)"/>
<path d="M112.162 3.57989V0.879893H125.422V3.57989H120.302V13.9999H117.282V3.57989H112.162Z" fill="url(#paint7_linear_1_22)"/>
<path d="M134.304 14.2399C132.731 14.2399 131.358 13.9666 130.184 13.4199C129.011 12.8732 128.098 12.0932 127.444 11.0799C126.804 10.0666 126.484 8.88656 126.484 7.53989V7.35989C126.484 6.01323 126.804 4.83323 127.444 3.81989C128.098 2.80656 129.011 2.02656 130.184 1.47989C131.371 0.919892 132.744 0.639893 134.304 0.639893C135.878 0.639893 137.251 0.919892 138.424 1.47989C139.598 2.02656 140.504 2.80656 141.144 3.81989C141.784 4.83323 142.104 6.01323 142.104 7.35989V7.53989C142.104 8.88656 141.784 10.0666 141.144 11.0799C140.504 12.0932 139.598 12.8732 138.424 13.4199C137.251 13.9666 135.878 14.2399 134.304 14.2399ZM134.304 11.4599C135.851 11.4599 137.024 11.1266 137.824 10.4599C138.638 9.79323 139.044 8.83323 139.044 7.57989V7.33989C139.044 6.08656 138.631 5.11989 137.804 4.43989C136.991 3.75989 135.824 3.41989 134.304 3.41989C132.771 3.41989 131.591 3.75989 130.764 4.43989C129.951 5.11989 129.544 6.08656 129.544 7.33989V7.57989C129.544 8.83323 129.951 9.79323 130.764 10.4599C131.591 11.1266 132.771 11.4599 134.304 11.4599Z" fill="url(#paint8_linear_1_22)"/>
<path d="M156.683 0.879893V3.51989H148.023V6.11989H156.283V8.73989H148.023V11.3599H156.683V13.9999H145.023V0.879893H156.683Z" fill="url(#paint9_linear_1_22)"/>
<defs>
<linearGradient id="paint0_linear_1_22" x1="23" y1="6.99989" x2="134" y2="6.99989" gradientUnits="userSpaceOnUse">
<stop stop-color="#0F67CF"/>
<stop offset="1" stop-color="#E3353E"/>
</linearGradient>
<linearGradient id="paint1_linear_1_22" x1="23" y1="6.99989" x2="134" y2="6.99989" gradientUnits="userSpaceOnUse">
<stop stop-color="#0F67CF"/>
<stop offset="1" stop-color="#E3353E"/>
</linearGradient>
<linearGradient id="paint2_linear_1_22" x1="23" y1="6.99989" x2="134" y2="6.99989" gradientUnits="userSpaceOnUse">
<stop stop-color="#0F67CF"/>
<stop offset="1" stop-color="#E3353E"/>
</linearGradient>
<linearGradient id="paint3_linear_1_22" x1="23" y1="6.99989" x2="134" y2="6.99989" gradientUnits="userSpaceOnUse">
<stop stop-color="#0F67CF"/>
<stop offset="1" stop-color="#E3353E"/>
</linearGradient>
<linearGradient id="paint4_linear_1_22" x1="23" y1="6.99989" x2="134" y2="6.99989" gradientUnits="userSpaceOnUse">
<stop stop-color="#0F67CF"/>
<stop offset="1" stop-color="#E3353E"/>
</linearGradient>
<linearGradient id="paint5_linear_1_22" x1="23" y1="6.99989" x2="134" y2="6.99989" gradientUnits="userSpaceOnUse">
<stop stop-color="#0F67CF"/>
<stop offset="1" stop-color="#E3353E"/>
</linearGradient>
<linearGradient id="paint6_linear_1_22" x1="23" y1="6.99989" x2="134" y2="6.99989" gradientUnits="userSpaceOnUse">
<stop stop-color="#0F67CF"/>
<stop offset="1" stop-color="#E3353E"/>
</linearGradient>
<linearGradient id="paint7_linear_1_22" x1="23" y1="6.99989" x2="134" y2="6.99989" gradientUnits="userSpaceOnUse">
<stop stop-color="#0F67CF"/>
<stop offset="1" stop-color="#E3353E"/>
</linearGradient>
<linearGradient id="paint8_linear_1_22" x1="23" y1="6.99989" x2="134" y2="6.99989" gradientUnits="userSpaceOnUse">
<stop stop-color="#0F67CF"/>
<stop offset="1" stop-color="#E3353E"/>
</linearGradient>
<linearGradient id="paint9_linear_1_22" x1="23" y1="6.99989" x2="134" y2="6.99989" gradientUnits="userSpaceOnUse">
<stop stop-color="#0F67CF"/>
<stop offset="1" stop-color="#E3353E"/>
</linearGradient>
</defs>
</svg>
