<svg width="21" height="20" viewBox="0 0 21 20" fill="none" xmlns="http://www.w3.org/2000/svg">
<path fill-rule="evenodd" clip-rule="evenodd" d="M1.66687 0H0.285156L13.634 14H2H1V15V16V17H2H7H8H16.4945L19.3549 20H20.7366L17.8762 17H20H21V16V15V14H20H15.0157L1.66687 0ZM14.5875 15H8V16H15.541L14.5875 15ZM16.9227 16L15.9692 15H20V16H16.9227ZM15 2.5H14.5V3.5H15H15.5C16.6046 3.5 17.5 4.39543 17.5 5.5V7.77273C17.5 8.17439 17.8256 8.5 18.2273 8.5H18.5C19.3284 8.5 20 9.17157 20 10V13V13.5H21V13V10C21 8.61929 19.8807 7.5 18.5 7.5V5.5C18.5 3.84315 17.1569 2.5 15.5 2.5H15ZM2 15H7V16H2V15ZM12 5.5C12 6.88071 13.1193 8 14.5 8H15.2727C15.6744 8 16 8.32561 16 8.72727V9.5C16 10.0523 16.4477 10.5 17 10.5C18.1046 10.5 19 11.3954 19 12.5V13V13.5H18V13V12.5C18 11.9477 17.5523 11.5 17 11.5C15.8954 11.5 15 10.6046 15 9.5V9H14.5C12.567 9 11 7.433 11 5.5H12Z" fill="#959DA7"/>
</svg>
