<svg width="19" height="19" viewBox="0 0 19 19" fill="none" xmlns="http://www.w3.org/2000/svg">
<path fill-rule="evenodd" clip-rule="evenodd" d="M0 9.5C0 6.98044 1.00089 4.56408 2.78249 2.78249C4.56408 1.00089 6.98044 0 9.5 0C12.0196 0 14.4359 1.00089 16.2175 2.78249C17.9991 4.56408 19 6.98044 19 9.5C19 12.0196 17.9991 14.4359 16.2175 16.2175C14.4359 17.9991 12.0196 19 9.5 19C6.98044 19 4.56408 17.9991 2.78249 16.2175C1.00089 14.4359 0 12.0196 0 9.5ZM9.5 1.36268C7.92276 1.36273 6.37953 1.82116 5.05805 2.68218C3.73657 3.54321 2.6938 4.76972 2.05659 6.21251C1.41939 7.65531 1.21521 9.25219 1.46891 10.8089C1.72261 12.3656 2.42325 13.815 3.48558 14.9808C4.13052 13.9706 5.01969 13.1393 6.07091 12.5637C7.12214 11.9881 8.30149 11.6867 9.5 11.6875C12.0274 11.6875 14.2478 13.0014 15.5144 14.9808C16.5768 13.815 17.2774 12.3656 17.5311 10.8089C17.7848 9.25219 17.5806 7.65531 16.9434 6.21251C16.3062 4.76972 15.2634 3.54321 13.9419 2.68218C12.6205 1.82116 11.0772 1.36273 9.5 1.36268ZM14.4946 15.9247C13.987 15.0498 13.2584 14.3238 12.3818 13.8193C11.5052 13.3148 10.5114 13.0495 9.5 13.0501C8.4886 13.0495 7.4948 13.3148 6.61821 13.8193C5.74162 14.3238 5.01302 15.0498 4.50544 15.9247C5.93232 17.0373 7.6906 17.6402 9.5 17.6373C11.3819 17.6373 13.1147 16.9976 14.4946 15.9247ZM6.12917 8.07278C6.12917 7.17878 6.48431 6.32139 7.11646 5.68924C7.74862 5.05709 8.606 4.70195 9.5 4.70195C10.394 4.70195 11.2514 5.05709 11.8835 5.68924C12.5157 6.32139 12.8708 7.17878 12.8708 8.07278C12.8708 8.96678 12.5157 9.82416 11.8835 10.4563C11.2514 11.0885 10.394 11.4436 9.5 11.4436C8.606 11.4436 7.74862 11.0885 7.11646 10.4563C6.48431 9.82416 6.12917 8.96678 6.12917 8.07278ZM9.5 6.06462C9.23629 6.06462 8.97515 6.11657 8.73151 6.21749C8.48787 6.3184 8.2665 6.46632 8.08002 6.6528C7.89355 6.83927 7.74563 7.06065 7.64471 7.30429C7.54379 7.54793 7.49185 7.80906 7.49185 8.07278C7.49185 8.33649 7.54379 8.59762 7.64471 8.84126C7.74563 9.0849 7.89355 9.30628 8.08002 9.49276C8.2665 9.67923 8.48787 9.82715 8.73151 9.92807C8.97515 10.029 9.23629 10.0809 9.5 10.0809C10.0326 10.0809 10.5434 9.86936 10.92 9.49276C11.2966 9.11615 11.5082 8.60537 11.5082 8.07278C11.5082 7.54018 11.2966 7.0294 10.92 6.6528C10.5434 6.2762 10.0326 6.06462 9.5 6.06462Z" fill="#0F67CF"/>
</svg>
