<svg width="18" height="19" viewBox="0 0 18 19" fill="none" xmlns="http://www.w3.org/2000/svg">
<path fill-rule="evenodd" clip-rule="evenodd" d="M0.5 0C0.223858 0 0 0.223858 0 0.5V18.5C0 18.7761 0.223858 19 0.5 19C0.776142 19 1 18.7761 1 18.5V6.5H1.00141H1.00561H1.00983H1.01406H1.01831H1.02258H1.02686H1.03115H1.03546H1.03978H1.04412H1.04847H1.05284H1.05722H1.06161H1.06602H1.07044H1.07488H1.07933H1.08379H1.08827H1.09276H1.09727H1.10178H1.10631H1.11085H1.11541H1.11998H1.12456H1.12915H1.13376H1.13837H1.143H1.14764H1.1523H1.15696H1.16164H1.16633H1.17103H1.17574H1.18046H1.18519H1.18993H1.19469H1.19946H1.20423H1.20902H1.21381H1.21862H1.22344H1.22827H1.2331H1.23795H1.24281H1.24768H1.25255H1.25744H1.26233H1.26724H1.27215H1.27707H1.282H1.28694H1.29189H1.29685H1.30181H1.30679H1.31177H1.31676H1.32175H1.32676H1.33177H1.33679H1.34182H1.34686H1.3519H1.35695H1.36201H1.36707H1.37214H1.37722H1.3823H1.38739H1.39249H1.39759H1.4027H1.40782H1.41294H1.41806H1.4232H1.42834H1.43348H1.43863H1.44378H1.44894H1.45411H1.45928H1.46445H1.46963H1.47481H1.48H1.48519H1.49039H1.49559H1.5008H1.506H1.51122H1.51643H1.52165H1.52688H1.5321H1.53733H1.54256H1.5478H1.55304H1.55828H1.56352H1.56877H1.57402H1.57927H1.58453H1.58978H1.59504H1.6003H1.60556H1.61083H1.61609H1.62136H1.62662H1.63189H1.63716H1.64243H1.64771H1.65298H1.65825H1.66353H1.6688H1.67407H1.67935H1.68462H1.6899H1.69517H1.70045H1.70572H1.711H1.71627H1.72154H1.72681H1.73209H1.73735H1.74262H1.74789H1.75316H1.75842H1.76368H1.76895H1.77421H1.77946H1.78472H1.78997H1.79522H1.80047H1.80572H1.81096H1.8162H1.82144H1.82668H1.83191H1.83714H1.84237H1.84759H1.85281H1.85802H1.86324H1.86844H1.87365H1.87885H1.88404H1.88924H1.89442H1.89961H1.90478H1.90996H1.91513H1.92029H1.92545H1.9306H1.93575H1.94089H1.94603H1.95116H1.95629H1.96141H1.96652H1.97163H1.97674H1.98183H1.98692H1.992H1.99708H2.00215H2.00721H2.01227H2.01732H2.02236H2.02739H2.03242H2.03744H2.04245H2.04746H2.05245H2.05744H2.06242H2.06739H2.07236H2.07731H2.08226H2.0872H2.09213H2.09705H2.10196H2.10686H2.11176H2.11664H2.12152H2.12638H2.13124H2.13608H2.14092H2.14575H2.15056H2.15537H2.16016H2.16495H2.16972H2.17449H2.17924H2.18398H2.18871H2.19343H2.19814H2.20284H2.20753H2.2122H2.21687H2.22152H2.22616H2.23078H2.2354H2.24H2.24459H2.24917H2.25374H2.25829H2.26283H2.26736H2.27188H2.27638H2.28087H2.28534H2.2898H2.29425H2.29869H2.30311H2.30751H2.31191H2.31628H2.32065H2.325H2.32933H2.33366H2.33796H2.34225H2.34653H2.35079H2.35504H2.35927H2.36349H2.36769H2.37187H2.37604H2.3802H2.38433H2.38846H2.39256H2.39665H2.40072H2.40478H2.40882H2.41285H2.41685H2.42084H2.42481H2.42877H2.43271H2.43663H2.44053H2.44442H2.44829H2.45214H2.45597H2.45978H2.46358H2.46736H2.47112H2.47486H2.47858H2.48229H2.48597H2.48964H2.49329H2.49691H2.50052H2.50411H2.50768H2.51123H2.51476H2.51828H2.52177H2.52524H2.52869H2.53212H2.53553H2.53892H2.54229H2.54564H2.54896H2.55227H2.55556H2.55882H2.56207H2.56529H2.56849H2.57167H2.57482H2.57796H2.58107H2.58416H2.58723H2.59028H2.5933H2.59631H2.59929H2.60224H2.60518H2.60809H2.61097H2.61384H2.61668H2.6195H2.62229H2.62506H2.62781H2.63053H2.63323H2.63591H2.63856H2.64119H2.64379H2.64637H2.64892H2.65145H2.65395H2.65643H2.65888H2.66131H2.66372H2.66609H2.66845H2.67077H2.67307H2.67535H2.6776H2.67982H2.68202H2.68419H2.68633H2.68845H2.69054H2.69261H2.69464H2.69665H2.69864H2.70059H2.70252H2.70442H2.7063H2.70814H2.70996H2.71175H2.71351H2.71525H2.71695H2.71863H2.72028H2.7219H2.7235H2.72506H2.72659H2.7281H2.72958H2.73102H2.73244H2.73383H2.73519H2.73652H2.73782H2.73909H2.74033H2.74154H2.74272H2.74387H2.74499H2.74607H2.74713H2.74816H2.74915H2.75012H2.75105H2.75195H2.75283H2.75367H2.75447H2.75525H2.75599H2.75671H2.75739H2.75804H2.75865H2.75924H2.75979H2.76031H2.76079H2.76125H2.76167H2.76206H2.76241H2.76273H2.76302H2.76328H2.7635H2.76368H2.76384H2.76396H2.76404H2.76409L2.76411 6V6.5C2.87813 6.5 2.98872 6.46103 3.07756 6.38955L2.76411 6C3.07756 6.38955 3.07776 6.38939 3.07796 6.38923L3.0784 6.38888L3.07935 6.3881L3.08161 6.38626L3.08748 6.38142L3.10436 6.36711C3.1178 6.35552 3.13552 6.33982 3.1567 6.32011C3.19896 6.28078 3.25545 6.22503 3.31924 6.15376C3.44591 6.01222 3.60658 5.80363 3.74011 5.53519C4.01426 4.98407 4.16426 4.19243 3.7102 3.27769C3.52308 2.90071 3.51778 2.55585 3.57125 2.19889C3.59247 2.05722 3.6207 1.92566 3.65131 1.78301L3.65132 1.78301L3.65133 1.78295C3.66173 1.73447 3.67241 1.68471 3.68318 1.63283C3.72263 1.44285 3.76367 1.2222 3.76367 1C3.76367 0.723858 3.53981 0.5 3.26367 0.5H1C1 0.223858 0.776142 0 0.5 0ZM1 1.5V5.5H1.00141H1.00561H1.00983H1.01406H1.01831H1.02258H1.02686H1.03115H1.03546H1.03978H1.04412H1.04847H1.05284H1.05722H1.06161H1.06602H1.07044H1.07488H1.07933H1.08379H1.08827H1.09276H1.09727H1.10178H1.10631H1.11085H1.11541H1.11998H1.12456H1.12915H1.13376H1.13837H1.143H1.14764H1.1523H1.15696H1.16164H1.16633H1.17103H1.17574H1.18046H1.18519H1.18993H1.19469H1.19946H1.20423H1.20902H1.21381H1.21862H1.22344H1.22827H1.2331H1.23795H1.24281H1.24768H1.25255H1.25744H1.26233H1.26724H1.27215H1.27707H1.282H1.28694H1.29189H1.29685H1.30181H1.30679H1.31177H1.31676H1.32175H1.32676H1.33177H1.33679H1.34182H1.34686H1.3519H1.35695H1.36201H1.36707H1.37214H1.37722H1.3823H1.38739H1.39249H1.39759H1.4027H1.40782H1.41294H1.41806H1.4232H1.42834H1.43348H1.43863H1.44378H1.44894H1.45411H1.45928H1.46445H1.46963H1.47481H1.48H1.48519H1.49039H1.49559H1.5008H1.506H1.51122H1.51643H1.52165H1.52688H1.5321H1.53733H1.54256H1.5478H1.55304H1.55828H1.56352H1.56877H1.57402H1.57927H1.58453H1.58978H1.59504H1.6003H1.60556H1.61083H1.61609H1.62136H1.62662H1.63189H1.63716H1.64243H1.64771H1.65298H1.65825H1.66353H1.6688H1.67407H1.67935H1.68462H1.6899H1.69517H1.70045H1.70572H1.711H1.71627H1.72154H1.72681H1.73209H1.73735H1.74262H1.74789H1.75316H1.75842H1.76368H1.76895H1.77421H1.77946H1.78472H1.78997H1.79522H1.80047H1.80572H1.81096H1.8162H1.82144H1.82668H1.83191H1.83714H1.84237H1.84759H1.85281H1.85802H1.86324H1.86844H1.87365H1.87885H1.88404H1.88924H1.89442H1.89961H1.90478H1.90996H1.91513H1.92029H1.92545H1.9306H1.93575H1.94089H1.94603H1.95116H1.95629H1.96141H1.96652H1.97163H1.97674H1.98183H1.98692H1.992H1.99708H2.00215H2.00721H2.01227H2.01732H2.02236H2.02739H2.03242H2.03744H2.04245H2.04746H2.05245H2.05744H2.06242H2.06739H2.07236H2.07731H2.08226H2.0872H2.09213H2.09705H2.10196H2.10686H2.11176H2.11664H2.12152H2.12638H2.13124H2.13608H2.14092H2.14575H2.15056H2.15537H2.16016H2.16495H2.16972H2.17449H2.17924H2.18398H2.18871H2.19343H2.19814H2.20284H2.20753H2.2122H2.21687H2.22152H2.22616H2.23078H2.2354H2.24H2.24459H2.24917H2.25374H2.25829H2.26283H2.26736H2.27188H2.27638H2.28087H2.28534H2.2898H2.29425H2.29869H2.30311H2.30751H2.31191H2.31628H2.32065H2.325H2.32933H2.33366H2.33796H2.34225H2.34653H2.35079H2.35504H2.35927H2.36349H2.36769H2.37187H2.37604H2.3802H2.38433H2.38846H2.39256H2.39665H2.40072H2.40478H2.40882H2.41285H2.41685H2.42084H2.42481H2.42877H2.43271H2.43663H2.44053H2.44442H2.44829H2.45214H2.45597H2.45978H2.46358H2.46736H2.47112H2.47486H2.47858H2.48229H2.48597H2.48964H2.49329H2.49691H2.50052H2.50411H2.50768H2.51123H2.51476H2.51828H2.52177H2.52524H2.52869H2.53212H2.53553H2.53892H2.54229H2.54564H2.54896H2.55227H2.55556H2.55882H2.56207H2.56221L2.57408 5.48687C2.65717 5.39403 2.76067 5.25887 2.84477 5.08981C3.00588 4.76593 3.10499 4.30757 2.81448 3.72231C2.50498 3.09879 2.51094 2.52699 2.58229 2.05074C2.60862 1.87492 2.64606 1.70073 2.67804 1.55192L2.67804 1.55191L2.67804 1.5519L2.67804 1.5519L2.68918 1.5H1ZM13 1H12V1.5V4H12.5H13V1ZM11 2V4C11 4.06897 11.007 4.1363 11.0203 4.20134C8.70141 4.84755 7 6.97508 7 9.5V15.5V17C7 18.1046 7.89543 19 9 19H16C17.1046 19 18 18.1046 18 17V9.5C18 6.97508 16.2986 4.84755 13.9797 4.20134C13.993 4.1363 14 4.06897 14 4V1C14 0.447715 13.5523 0 13 0H12C11.4477 0 11 0.447715 11 1L8.5 1C8.36739 1 8.24022 1.05268 8.14645 1.14645L7.14645 2.14645C6.95118 2.34171 6.95118 2.65829 7.14645 2.85355C7.34171 3.04882 7.65829 3.04882 7.85355 2.85355L8.70711 2H11ZM8 16V17C8 17.5523 8.44772 18 9 18H16C16.5523 18 17 17.5523 17 17V16H8ZM17 15H8V10H17V15ZM12.5 5C10.1837 5 8.27619 6.75003 8.02746 9H16.9725C16.7238 6.75003 14.8163 5 12.5 5Z" fill="#959DA7"/>
</svg>
